<svg height="397.359707" viewBox="0 0 190 300" width="251.661148" xmlns="http://www.w3.org/2000/svg"><g transform="translate(-942.5713 -123.36297)"><path d="m1053.2793 356.11931c.025-.15375.041-.305.041-.4525.001-.32875-.1888-.64125-.2925-.96625-.2325-.72375-.345-1.485-.3913-2.2425-.1-1.61.089-3.25625.5088-4.81125-1.0963-1.15-1.3663-2.835-1.855-4.315-1.1975 1.43625-2.0738 3.81-1.085 5.82625.3887 2.36375-.9413 3.81625-2.2788 4.6575 2.0538 6.27125 3.2163 13.975 2.325 21.75125-.7912 6.8975-.2262 13.8225-.915 20.66-.145 1.4375-.7487 2.565-1.8675 3.05l1.075 7.99875c.1925 1.38375-.3812 3.08-1.5187 2.87625-.9363-.16875-1.9988.0975-2.24.9675-.1988.71875-.6737 1.66125-1.5862 1.70375-1.2563.0575-2.0763-1.3825-3.495-1.07-.3688 1.2425-1.83 2.99375-3.6263 2.3675-.8937-.3125-2.5325-1.04875-2.5725-.36125-.1087 1.8625-1.7862 3.2375-3.685 3.345-.74.0425-2.3525-1.3175-2.5875-.72625-.495 1.2375-1.91 2.86-3.9837 2.48375-.6825-.125-2.1675-1.64625-2.7338-.25875-.5412 1.325-2.0587 2.13375-3.6712 1.445-.9438-.40125-2.0975-1.22625-3.055.085-.8713 1.19-2.5988 1.84625-4.4925.97125-.6263-.97625-2.1938-2.98375-3.7463-1.44375-3.1812.1525-5.1538-1.39875-7.30876-2.525-1.99875-1.045-3.85875-2.6775-3.465-6.04.6975-5.9475 2.71375-10.4725 6.76626-13.1425 2.8438-.59375 4.7688-2.4025 6.57-4.01625.2288-.20375 1.04.001.6688-.2525-.8625-.59-1.8813-2.24875-1.1213-3.0425 2.275-2.3775 2.5663-6.3775 3.375-10.04125.8563-3.87875.9525-8.98.3913-13.11125-.8013-5.9.1325-11.025 2.2537-14.67625-1.1062-1.8575-1.8825-3.9675-2.2912-6.66-1.8738-.175-3.5975-1.4425-3.4025-3.91375.315-3.96875-1.0163-7.65375-.075-11.3875.52-2.0625 1.1062-4.0475 2.295-5.50625-1.3113-.76375-2.56-1.54125-3.4125-2.7175l7.93-11.37375c.3112-.465.7462-2.465-.785-2.36875-2.2425.14375-3.2488-.36125-4.8025-.86375-.8163-.265-.84-1.13125-.6925-1.78125 1.8862-8.2875 2.8737-17.32 3.8-26.40375.7612-7.48125 2.3412-14.0875 2.2962-22.24125-.011-2.26875-.1212-4.4725-.24-6.60625-6.4687 1.165-14.59876.63625-20.28751-1.3225-5.14625-1.7725-10.0825-3.8325-13.36125-7.62125-2.52875-2.92125-4.91375-5.66625-6.9425-8.985-2.3475-3.84125-4.21375-7.63-5.96875-11.89875-1.52625-1.16-2.02125-3.4125-2.975-5.20125-.9275-1.74-2.0325-3.74625-1.8675-6.24125.03-.4675.33625-1.15625.96875-.92875.385.1375.64875-.1.20375-.34875-2.9425-1.645-4.76625-4.25125-6.67-6.9625-.9825-1.39875-1.7525-3.0925-3.39-3.8475-1.9425-.895-4.17625-1.3975-6.24-1.9825-1.3175-.3725-2.38125-.70125-3.01-2.0325-.2525-.535-.37-1.18625-.32-1.775.14-1.6225 1.585-2.45125 3.02875-2.25125 1.675.2325 3.13625 1.12125 4.75625 1.54 1.23.31625 2.31375 1.02125 3.6175.56375-1.79375-2.17625-4.67875-3.1825-6.725-5.00125-1.06625-.94875-2.30625-2.43-1.61875-3.96875.1975-.43875.52375-.68125.9-.96125 1.80375-1.3425 3.86875.26125 5.435 1.185 1.9375 1.14375 3.81375 2.38875 5.635 3.70875-1.06-1.6725-1.99-3.42-2.985-5.13125-.85125-1.46375-2.34625-2.99875-1.58625-4.78375.225-.53125.5675-1.01125 1.00875-1.38375.66375-.5625 1.9325-.8125 2.71375-.20125.34125.2675.72375.575 1.00125.91875.38875.485.76375.98375 1.12875 1.48625 1.4725 2.03 2.79625 4.17125 4.37875 6.12-.33375-2.99-1.0875-5.93625-1.05375-9.155.0125-1.14625 1.08625-1.69625 1.91375-1.9575 1.62875-.515 2.83375.85375 3.23625 1.97625.74375 2.07625 1.24125 4.58 1.58 7.1375 1.3325 1.70625 1.79125 4.00875 3.02625 5.74125.3.4225.98.89875 1.4175.425 1.30125-1.4025 2.1225-3.28875 3.5125-4.59125 1.48375-1.38875 5.195-1.66875 6.28375.3375.62125 1.145 1.03375 2.7625-.003 3.925-2.1975.785-3.77625 2.59625-3.5975 5.72875.1525 2.66375-.5725 4.8475-1.83375 6.19625-.2925.31375.41875.4475.6075.13375.36125-.59625 1.04125-.335 1.51125.08 2.29625 2.035 4.1 4.58125 6.38375 6.86625.50625 1.885 1.3625 2.88875 2.82625 3.79625 3.15375 1.9575 6.0925 4.31125 7.59375 8.1175 1.93626.73375 3.77256 1.7975 4.81876 3.33 4.7188-.44125 8.2813-2.21125 11.8638-3.7375l5.38-1.9425c.7962-.24875.5812-1.93375-.3325-2.83-3.305-3.235-5.7475-7.01625-8.2438-10.92875-3.3237-5.21125-5.945-10.82625-7.29-17.91375-1.1225.74625-2.4362-.15625-2.9075-1.03375-.31-.5775-.4163-1.00125-.1313-1.60625.2501-.53375.6426-.995 1.0901-1.37375.2912-.24625.6125-.39125.7712-.76125.14-.3225.14-.7.086-1.0425-.565-3.6175.1175-7.07375.86-9.96375 1.1987-4.66625 2.5237-8.93125 5.0962-12.19625-4.5425 1.28875-10.19501.81625-13.40876-1.4775-3.06-2.18375-2.55625-8.53625-.7025-11.78375 1.13375-1.98625 2.495-3.86125 4.1725-5.42625 1.70246-1.58625 3.75626-2.875 5.97756-3.59375.305-.0987.5975-.125.9112-.17875.2925-.0513.58-.0762.8788-.0762 1.24 0 2.4012.17625 3.5475.6625.9575.4075 1.8387.9875 2.5787 1.71875 1.1 1.08875 1.8525 2.4825 2.2563 3.97l2.2225 7.3625c.1412.40625.8287 1.1025 1.4537.61625 2.8038-2.18125 6.1225-4.0975 10.0388-4.985 2.8812-.6525 6.0537-1.31 9.6975-.95625-.22-3.02875-1.49-5.47375-1.58-8.68125-.1188-4.24 2.6587-6.44 5.82-7.61125 4.9049-1.81625 11.5012-.2775 14.2287 2.725 1.6937 1.86375 3.3537 5.15875 2.1162 8.555-1.2462 3.42625-4.1812 5.5075-7.03 7.22-.3362.20375-1.0062.78-.555 1.0125 2.9263 1.5 5.6125 3.7575 7.7563 6.1425 1.7675.17375 3.5425.33625 5.2862.6825.7963.15875 1.7925.395 2.5338.73375.9437.4325 1.7987.86875 2.36 1.44625.585.60375.6287.71875 1.1912 1.34375 1.17 1.305 2.1625 2.7625 2.6088 4.4775 1.3212 5.08 1.0975 11.09625-1.5325 14.31375 2.8575 6.20875 4.8512 15.81375 2.755 23.92125-1.1088 4.28625-2.5088 8.815-4.2438 12.4075-.5825 1.20625-1.6237 2.36375-2.2212 3.69875 5.36 2.3525 10.8325 4.49125 15.5937 7.39 3.7775 2.30125 6.4375 5.64 9.535 8.66625 3.2588 3.1825 5.88 7.08625 8.2088 11.15625 2.1125 3.695 4.29 7.1975 6.0925 11.4025 1.4612 3.41125 1.125 8.42125 1.1312 12.90875.011 7.54625-2.855 12.92125-5.5712 17.9925-3.09 3.49-5.5475 7.145-8.1563 11.0775-.6312.95-2.145 1.98-2.1537 2.63-.043 3.49625-1.6163 6.5825-3.875 8.48625 1.2837 2.15-.02 5.0825-1.165 6.84 1.4662 2.33125 3.3075 4.5075 4.075 7.31875.7312 2.68-1.3663 4.81-3.4563 5.57625 2.5275 4.7425 3.8025 12.18625 1.835 18.27625-.3637 1.125-.9862 2.3275-2.0187 2.88375.2637 3.8875-.6475 7.24-2.0638 10.025 1.8563 4.06 2.3613 10.05125 2.3713 16.085.01 5.49375 2.0925 9.52625 4.16 13.305.6212 1.135-.415 2.105-.855 2.9675.52.5575.5787 1.77625 1.875 1.49125 2.5237-.55625 4.365.605 4.9212 2.32125 2.9638.56375 5.555 1.93 7.5375 3.6 2.2325 1.87875 4.265 4.08125 3.835 8.6025-.2412 2.5575.36 4.97.059 7.4075-1.39 1.365-2.6525 2.7825-4.5125 3.4175-1.95.66625-4.0125 1.26125-6.5487 1.20875-.8875-.0175-2.0525-2.15375-2.8663-1.4225-.7225.65-1.59 1.67375-2.3 1.495-1.3125-.3325-1.8225-1.83-3.0912-2.5975l-3.325 2.2975c-1.9238-.006-3.2388-1.99375-3.7413-3.425-1.7312-.0838-2.8575 1.03-4.0075 1.3375-1.7012-.30125-2.8625-1.87875-3.4375-3.285-1.6525-.48625-2.6787.94125-4.0025.87-1.5487-.0825-3.0012-1.18375-3.0237-2.7975-.01-.67-1.4338-.64-1.9075-.0462-.6438.8075-2.04 1.31-2.9013.28125-.7275-.86875-1.0925-2.70125-2.7125-2.68-1.4987 1.125-3.5537.98625-4.5037-.46625-1.0038-1.53125-.9088-3.95125-1.2488-6.055-.1575-.96625-.017-2.08875.099-2.94-1.0262-.17625-2.065-.80875-3.1712-1.03-.4425-3.4725 1.0112-5.995 1.255-9.2425-.9125-5.01125-1.1438-10.74.067-15.44-.22-4.01125-1.1463-6.78625-2.2525-10.10625-.1513-.455-.2663-1.6325-.2288-2.1025.047-.5775.1375-1.15125.2563-1.7175.165-.79.6187-1.6925.7562-2.52375"/><path d="m1081.7119 303.22768c-1.235 1.30625-2.3287 2.61625-3.6775 3.72875-2.745 1.08875-5.905 1.9625-8.8712 2.7775-3.8013 1.0475-8.7613.6725-12.9913 1.09-8.2287.80875-16.9575-.46625-25.3287-.8525-4.8788-.225-10.215.54375-14.8538-.3275-.081.635-.4187 1.61625-.3012 2.23375.1025.53625.8875.75 1.3375.9225.8487.32125 1.7237.555 2.6012.77875.8575.21875 1.705.54125 2.5875.54375 1.8563.002 3.7388-.23625 5.5813.0762-1.2038 3.0975-1.5813 6.98625-1.8563 10.85125-.086 1.2225-1.3212 1.84875-1.4112 2.68875-.4875 4.5275.06 8.84625.1625 13.2375.05 2.15875.5025 5.455-1.025 6.75375-3.925.6275-7.9463.35-10.9213-1.00875-.077.475.066.8425.1538 1.20625 1.1112 4.565 3.9387 7.5175 7.3137 9.88125.5688.4-.2362 1.165-.4512 1.0175-1.7775-1.2225-3.43-2.77-4.98-4.54875-.365-.41875-.6638.115-.7425.29625-1.4613 3.37875-2.24 7.2725-1.6138 11.8925.6163 4.5525.6275 9.91625-.3112 14.20125-.7225 3.295-1.4288 6.70375-2.8188 9.12375-.5562.97-.8712 2.1325-.1462 2.47125 1.7137.79875 3.8825.97 6.25.9175 5.1925-.115 8.9725 1.76125 12.6412 3.36 2.7438 1.19625 5.7788 1.6575 8.7475 1.865 1.7838.12375 3.575.17875 5.3638.13375.895-.0225 1.7887-.0763 2.6812-.1475.3538-.0288.64.035.985.0337 1.4563-.006 2.3638-1.08625 2.5138-2.49125.59-5.5.091-10.5275.6787-16.13875.93-8.88625.585-18.51375-1.9737-25.395-.3163.13375-.7913.10375-1.0588-.115-.6487-.5325.4063-.94375.875-1.09 1.6863-.51625 2.7713-2.48 1.975-4.555-.3725-.97125-.135-2.4125.1238-2.92 1.5087-2.96875 2.8412-7.08 1.6125-11.26875l1.2262-14.47625c.3113-2.26625.38-5.03-.8712-6.44375-.2863-.3225-.081-.98.4725-.7725 1.0712.40375 1.6512 1.95375 1.6612 3.385 1.6413-1.2425 2.9788-3.11625 4.3125-4.62.7588.185.4875.98875.175 1.2925l-4.4375 4.80875c-.3687 2.4225-.32 5.23375-.6987 7.745-.5825 3.84125-1.0338 8.6375-.1225 12.5325-.6313 2.77625-.079 5.74.9462 7.79375 1.2788 2.56125 4.1263 4.1175 7.07 5.04.5763.18-.125.765-.465.715-1.9762-.2925-4.44-1.58125-5.6175-2.34-1.4137 4.2025.9475 7.82125 3.6213 9.3675.53.30625.33 1.6325-.01 1.4175-1.2863-.8075-2.675-1.9125-3.5338-3.16875-.6912 1.32-1.1725 3.25375-.7862 4.775.95 3.7475 2.1762 7.64 2.3625 12.20125-1.105 3.0025-1.1313 6.64875-.6288 10.26125.5825 4.1925-.075 8.3575-.9537 11.98 1.1712.93 2.9562 1.29 4.7887 1.34625 5.055.155 10.445-.345 14.25-1.60625 5.1488-1.70875 9.215-4.445 14.1263-6.055 1.2612-.41375 2.8512-1.5725 4.1775-1.2375.8437.2125.5237-1.39.17-2.0525-2.11-3.94375-4.0588-8.59625-3.9338-14.535.1075-5.0325-.2537-9.88875-1.9587-13.39875-.4825.47875-1.7888 1.78625-2.255 2.2-.465.41-1.145 1.13875-1.8838.37375.1275.13125 2.8738-2.59875 3.1038-2.88125.5-.615 1.1487-1.50875 1.4237-2.25125.3125-.845.6513-1.69.8925-2.5625.5213-1.86875.68-3.8225.4488-5.75-2.2913.83375-5.35 1.37375-8.5625 1.155-2.2625-.15375-4.8063-.53375-5.6388-2.1075l1.325-8.13125-1.1075-18.355c.4813-1.83125-1.145-3.4775-1.33-4.63375.875-.2425 1.8463-.0538 2.535.1175 1.765.44 3.62.4175 5.395.0513.835-.1725 1.6475-.425 2.4438-.7275.8962-.34 1.7812-.64 2.6887-.91125.775-.2325 1.4725-.67 2.0238-1.2625.5637-.60625.96-1.3525 1.2062-2.13875.13-.41.2175-.8325.2688-1.25875.031-.2475.2125-1.1575.049-1.35125-1.7775-2.11625-4.4663-3.655-7.22-4.75375" fill="#0073ae"/><path d="m1007.0514 134.99681c-.1975.0162-.3925.0412-.5875.0737-2.445.41375-4.5525 2.14875-6.255 3.86-2.44373 2.455-4.45373 5.435-4.90373 8.94-.2375 1.8525-.28375 4.12 1.12375 5.53375 1.26625 1.27125 3.0125 1.91625 4.74248 2.25875.4888.0962.9825.17 1.4775.22625 3.635.415 6.3475-.955 9.91-.58875.4988.0525.1275.68-.092.8375-.6337.45875-1.66.4625-2.3537 1.2775-2.3588 2.77125-3.4413 6.71875-4.5825 10.7025-.9 3.14125-1.6325 7.2175-.8325 11.2525 2.3825-.7275 5.15-1.6775 8.1687-1.76625-.1312-1.475-.3675-3.09875-.095-4.56875.8813-4.73875 3.7713-8.02 7.7925-9.78875-.17-.98625.6563-2.38 1.245-3.315.9175-1.4525 1.7513-3.36625 3.4588-3.93125.5275-.175 1.0512.6475.7287.8425-1.9537 1.17625-3.3112 3.15-4.05 5.56375 1.2825-.435 2.3563-1.015 4.3288-1.12375 1.23-.0687 2.4762-.24625 3.7012-.0875.61.0787 1.9163.31 2.44.49125 1.655.57625 2.575.67625 4.0875 1.7075 1.395.95 2.5063 2.26875 3.2575 3.775.1613.32375.3075.65625.4375.995.081.21375.4113.8325.345 1.05125.545-1.8025 3.1238-2.6025 5.3313-1.865.013-.60375.08-2.16875.06-2.68125-.094-2.45125.6312-5.13125 1.9875-6.7275 1.4575-1.71375 2.8775-3.495 5.2075-4.4575-.595-.5225-1.2275-.89375-1.9913-1.1125-.4012-.115-.7525-.12125-1.16-.0825-.4037.04-.7925-.095-1.1762-.25625-.32-.1325-.4825-.3575-.7675-.535-.4-.24875.086-.6975.4487-.69375 2.3963.0263 4.28.85375 5.8975 1.89375 1.4925-.68875 1.965-.60125 4.2925-.86125-2.845-3.1525-6.4062-5.445-10.7837-6.9725-6.0638-2.11875-15.9488-2.13125-21.5288.44375-2.4887 1.1475-5.2825 2.23125-6.7337 4.42875-.8125-.15625-1.8413-.47125-2.4063-1.40375-1.3762-2.27125-1.53-5.44375-2.4537-8.005-.4863-1.34625-1.25-2.6125-2.3263-3.57-1.4437-1.285-3.46-1.92-5.39-1.76125" fill="#fbb040"/><path d="m1060.7018 152.77119c-.3913.004-.7813.0188-1.17.035-1.5888.0675-3.31.20625-4.7538.93-.59.295-1.1425.6575-1.695 1.01625-.3925.25375-.83.435-1.2025.70625-1.075.78125-1.9587 1.885-2.7775 2.92375-.5112.65-.86 1.1875-1.2537 1.9175-.2025.37375-.45 1.06875-.5613 1.475-.2262.82125-.2625 1.4675-.245 2.31125l.074 3.79625c.01.31625.014.63125.02.94625-1.0637.29625-1.6425-.71-2.6025-.7625-1.6887-.0925-2.8637.92-3.2249 2.34125-.1163.45625-.7988 1.095-.95.62625-.7275-2.25375-1.795-4.06375-3.2038-5.6775-1.5462-1.77125-4.4862-2.72875-7.4612-3.06-4.3963-.48875-7.4138.9875-10.1138 2.61625-3.1887 1.9225-5.6787 5.17375-5.9862 9.96125-.1 1.57625.8575 2.93875 1.2162 3.635-2.9087.0687-5.55.70375-7.8462 1.36375-1.8113.5225-3.3875 1.0275-4.1163 2.77625-.2575.61625.8625 1.31 1.33 1.0275 2.9425-1.78125 6.8888-2.5675 11.0875-2.77625.88 1.2875 2.0075 2.7825 3.2125 3.82 2.6338 2.2625 5.9488 4.25125 10.9125 3.965 2.21-.12625 3.9813-.53 5.5938-1.475.855-.50125 1.3275-.925 1.73-1.35625.505-.5375.96-1.1225 1.3625-1.74.9375-1.44125 1.5725-3.06375 1.9337-4.7425.2013-.93375.3175-1.88625.3638-2.84125.024-.51125.031-1.02375.014-1.535-.015-.42625-.1237-.88875.061-1.29875.2175-.48.63-.77875.92-1.1925.3375-.47875.7737-.88875 1.2625-1.21 1.0437-.68375 2.3612-.9475 3.5512-.50125 1.08.40625 1.7212 1.62875 2.4362 2.21125 2.6525 2.1525 5.2288 4.6775 9.2388 5.50375 3.8425.79 8.1087.055 10.8237-1.70375 1.8638-1.2075 3.3713-3.12125 4.2763-5.23 1.4962-3.49.945-8.49875-.4925-11.9-.7313-1.7275-1.9513-3.2025-3.3188-4.4675-.6112-.56375-1.23-.92875-2.0012-1.25-.7738-.3225-1.6188-.51-2.4288-.70375-.9125-.22125-1.84-.3925-2.7775-.4525-.41-.0275-.8237-.0337-1.2375-.0288" fill="#9c5f0e"/><path d="m1026.8504 164.65519c3.425-.12625 6.5288.46625 8.4338 2.22625 2.12 1.95625 3.3175 5.23 3.12 9.2425-.1925 3.88-1.6363 6.5625-4.04 8.27625-1.5838 1.13-3.5575 1.64-5.4788 1.7525-1.7412.10125-3.5187-.1175-5.1712-.68-.7725-.26375-1.5213-.605-2.21-1.045-.3313-.21125-.665-.37875-.9788-.61-.3937-.2925-.8512-.5375-1.2237-.85875-.4788-.4125-.8875-.90125-1.245-1.42-.735-1.0675-1.265-2.25875-1.83-3.42-1.9188-3.945-.03-9.175 2.63-11.025 1.7462-1.21625 2.9962-1.95375 6.6225-2.3425.4312-.0463.905-.0788 1.3712-.0962"/><path d="m1059.3263 154.25144c.3512.006 1.6025.065 1.9775.11875 2.3362.33125 4.0337.7625 6.0937 1.97 4.3 2.5175 6.7225 10.865 3.275 16.21125-2.0325 3.15375-6.7337 5.02125-11.855 3.9875-3.1412-.63375-6.2575-1.73875-7.945-3.88125-3.125-3.9625-2.425-12.5325 1.1463-15.40125 1.2237-.98375 2.58-1.79 4.035-2.385 1.1675-.47875 2.095-.63875 3.2725-.62"/><path d="m1026.3833 165.73994c-3.3337.1575-7.0812 1.70125-8.8637 4.65375-2.1813 3.615-.4175 8.1775 1.6187 10.73625 1.8975 2.38125 5.2688 3.76125 9.0375 3.8325 2.5788.0475 5.3-.6625 6.8313-2.22 3.27-3.32625 3.0675-12.675-.705-15.38625-2.1613-1.55375-5.3075-1.73-7.8725-1.61875-.016.001-.031.001-.046.002" fill="#fff"/><path d="m1059.5613 155.40331c-.5638.005-1.13.0362-1.685.12375-1.6963.265-3.3475 1.10875-4.7238 2.145-2.3387 1.75875-3.1012 5.17-3.1462 7.93625-.021 1.26125.1137 2.535.4462 3.75375.205.74875.4463 1.50125.8338 2.1775.4125.7175.98 1.16625 1.6662 1.6075 1.4975.96625 3.145 1.69625 4.8725 2.1425 4.8838 1.2625 10.5163-.32625 12.3338-4.01875.6925-1.40875 1.0012-2.97875.9937-4.5425-.01-1.85375-.4412-3.705-1.1925-5.39625-.6725-1.515-1.635-3.1375-3.0437-4.06375-.4425-.2925-.9125-.56375-1.3938-.78125-.5512-.24875-1.1162-.43625-1.7087-.57625-1.3275-.3125-2.71-.50875-4.0813-.50875-.058 0-.1137.001-.1712.001" fill="#fff"/><path d="m1044.3237 171.67794c-.4025-.0188-1 .185-1.425.43375-1.2225.71-1.4825 2.18625-1.4938 3.97-.024 3.56875-1.07 7.11875-3.4512 9.8325-.41.46875-.8538.9075-1.325 1.315-.235.20375-.4775.435-.7425.6-3.1113 1.93625-7.295 2.1425-10.8113 1.35875-3.2887-.7325-6.4712-2.41125-8.7275-4.9425-.3175-.35625-.615-.72875-.8887-1.12-.086-.12375-.6138-1.14-.7-1.14125-3.795-.0725-6.7788.8675-9.1813 2.11375.2863 2.33 1.1025 4.32125 1.7188 6.33375 1.4837 4.8425 3.8612 8.685 6.2737 12.6525 2.2238 3.66 4.5175 7.3725 7.8363 9.90625 1.5425 1.1775 2.8562 2.61625 4.3087 3.89625.8175.7225 1.6888 1.38625 2.6163 1.9625.8887.5525 1.8525.9325 2.7612 1.43875 1.9225 1.07 4.01 1.805 6.0875 2.50625 1.0763.3625 2.155.71375 3.225 1.09125 1.5788.5575 3.2563.7925 4.9138.9725 1.6675.18 3.31.345 4.98.0925 1.2362-.1875 2.4662-.55 3.6825-.83125 3.3775-.78125 6.025-3.04375 8.6275-4.70125 3.685-2.35 6.0625-6.12 7.9225-10.18 1.7087-3.72875 3.0275-7.4325 3.9275-12.015 1.1275-5.7375.3987-12.81875-1.4438-17.64-.485-1.26625-.5087-3.15-1.5262-3.98125-1.0975 1.2525-2.025 1.92125-3.3688 2.60875-2.6287 1.34625-6.5087 1.9475-9.9025 1.335-1.88-.33875-3.6862-.9875-5.3562-1.915-.7938-.44-1.555-.93625-2.295-1.4625-.7088-.50375-1.4488-.97625-1.9975-1.64875-1.1075-1.36125-2.3675-2.75125-4.245-2.84125" fill="#fbb040"/><path d="m966.18629 173.59769c-.4675.20125-1.1475.69375-1.10375 1.3375.24 3.52625.66125 6.72125 1.07125 10.05375.0575.46625-1.18.6075-1.54875.045-1.2575-1.91875-2.58125-3.795-3.97875-5.61375-.7025-.91375-1.45875-1.785-2.165-2.69375-.47875-.615-1.08-.995-1.995-.33-.44.31875-.82125.76625-.81125 1.37125.009.46375.33 1.0275.56 1.41125.46625.7725.93125 1.54375 1.3975 2.31625.99875 1.66 2 3.32 3 4.98125.16375.27.32625.54.48875.81.46625.81875-1.7025.55125-2.25375.14125-1.5775-1.1675-3.2875-2.1325-5.0075-3.07125-.895-.48875-1.7925-.97375-2.6825-1.4725-.47125-.265-1.38875-1.01625-1.87625-.50125-1.79125 1.88875 1.17375 4.18875 2.71875 4.97625 2.05875 1.05 3.835 2.46125 4.965 4.41125.1975.34125-.93125 1.28375-1.97375 1.16625-1.73-.1925-3.3925-.7075-5.03625-1.26-.99625-.335-2.2675-1.165-3.3575-.85875-.5225.14625-.69625.9425-.75125 1.39625-.24125 2.0125 2.13875 2.03875 3.54875 2.52 1.9675.6725 3.89375 1.46 5.86125 2.135 1.4475 1.64 2.8225 3.345 4.02 5.20625.62125.96625 1.27125 1.9275 2.065 2.7625.67375.70875 1.34 1.1775 2.06 1.8325.5725.52125 1.1525 1.08375 1.9225 1.3525 1.4475.50625 3.17875.007 4.32625-.95125 3.68-1.545 6.44875-3.45 9.1975-6.05375.525-.495-1.00625-.7925-.7475-1.1225 1.3225-1.6825 2.45375-3.75375 2.22125-6.79-.2775-3.62625 1.6375-5.61125 4.00625-6.63875.82-.35625.1875-1.50375-.19-2.13875-.72125-1.21-2.595-1.3825-3.925-.5925-1.82875 1.08875-2.88 3.15-4.07375 4.86-.73125 1.05-2.7375.7575-3.21-.1725l-2.8875-5.9925c-.93375-2.51875-1.02375-5.4075-1.97-7.8025-.27875-.7075-1.03125-1.39875-1.885-1.03" fill="#fbb040"/><path d="m988.22492 209.65344c-.0175.0175-.1225.07-.1475.0975-2.37875 2.70375-5.025 5.23125-8.3875 6.9825-3.055 1.59125-6.36375 2.85125-9.94875 3.81625-1.31625.35375-.3075 1.79125-.0725 2.3375 1.935 4.48624 4.0725 8.98374 7.00375 12.44124 2.7375 3.22875 4.89 7.05125 8.72875 9.145 4.22125 2.3025 8.47875 4.625 14.29 5.315 4.58373.54375 10.11623.88 14.57753-.0775-.1288-2.7525.38-5.56375.2037-8.515-.035-.59625 1.0688-.53375 1.0438 0-.2688 5.83375-.035 11.9475.295 18.21375l-5.0225 40.92375c-.255 2.03625-1.175 4.40125-.99 6.38125 1.2662 1.22875 3.1612 1.14875 5.2137 1.565 4.5913.9325 10.1425.41125 15.275.6275 8.4763.35625 17.1213 1.37375 25.5013.83875 6.23-.39875 12.3562-.33125 17.3237-2.47625 3.1513-.47 6.0675-2.0375 7.2263-4.57125.4137-.90875 1.705-1.68625 2.4175-2.57375 1.8412-2.29375 4.2037-4.2975 5.0637-7.63875.4375-1.69375-.5462-3.84375-1.5087-4.41875-.9713 2.49875-2.7063 4.23375-4.5463 5.705-1.6837 1.3425-3.9187 1.8375-5.9362 2.8025.6487-.88 2.0287-1.6825 3.025-2.2725 3.0637-1.81625 6.0287-4.4225 6.865-8.54375.425-10.4275-.07-20.93875-1.7125-29.89875-1.5063-4.59-3.1863-8.895-5.0663-13.14-.2387-.53625.5138-1.04625.7288-.70875.975 1.535 1.8512 3.215 2.3375 5.3125.82-1.225 1.485-2.81 1.6162-4.65.03-.4275.8563-.96875.865-.4225.044 2.61375-.99 4.81875-1.8525 6.76875 1.5025 3.0325 2.5813 6.16875 3.0113 10.17-.048-.44125 1.1462-1.515 1.4437-1.80625.6163-.60125 1.3188-1.115 2.0825-1.5125 1.8163-.94125 3.8-1.1 5.8013-.825.4812.065 1.0412-.0488 1.03.575-.019.92375-1.495.5375-2.0263.46125-1.1575-.16375-2.58.185-3.6587.61125-2.3838.9425-4.6625 2.97375-4.2475 6.1175 1.1987-1.51125 3.7325-2.13125 6.2787-1.9425.775.0563-.2487.79-.2612.9275-2.3925-.13125-4.675.7675-5.7113 2.38875l.675 14.8975c.023.5725.15 1.05875.7613 1.1475 1.8625.26625 3.635.54625 5.19 1.21125 2.8525 1.21875 5.6975 2.46875 7.0975 5.3475 1.705-1.81625 3.3562-3.81 4.43-6.24125 1.7112-3.88 3.5062-7.81125 3.615-13.04125.09-4.3175.6137-9.1625-.6963-12.7375-1.6137-4.405-3.9525-8.18875-6.1262-11.94125-1.94-3.35125-3.8513-6.68625-6.5438-9.33-3.9175-3.845-7.1525-8.34124-12.1675-11.00249-4.235-2.24625-8.9012-4.50125-13.5225-6.14625 2.5975 1.8675 4.6125 4.585 5.9213 7.55375.7937 1.80124 2.1362 3.73124 1.4587 5.97999-.3587 1.18625-2.1137 1.54875-2.9387.79625-2-1.8275-5.48-2.645-8.835-1.60375-2.7425.85125-5.2088 2.24875-6.4988 4.57125-.2112.3775-1.03.84125-1.0062.2675.07-1.74375 1.41-2.9425 2.5162-3.70125 1.5838-1.08625 3.415-2.03875 5.6188-2.4325 3.4537-.61875 6.43-.0438 8.49 1.77875.7562.67 2.1162-.0337 1.925-.5875-.9025-2.6225-1.8413-5.28124-3.32-7.44624-1.355-1.9825-3.075-3.6925-5.3338-4.8525-1.6812 1.96875-3.6 3.675-5.82 4.94625-1.385.7925-1.815 1.4025-2.7812 2.785-1.5713 2.24749-2.5888 4.85499-3.1625 7.86124-.31 1.625 1.1062 2.82875 1.5137 4.23375 1.4938 5.14625 2.7838 10.5175 2.6063 17.20125-.035 1.32125-2.2313.5825-3.3238.64625-2.6962.1575-5.4087.5425-8.0837.0137-.6638-1.67375.014-3.64.5187-5.02125.1275-.34875.9738.35375.765.93-.3475.9575-.9862 2.2875-.2937 3.46125 3.22-.0838 6.1537-.59625 9.5275-.24625.1987-1.51125.031-2.985-.031-4.46875-.2125-5.115-1.93-9.17375-3.035-13.38625-2.14-3.1675-5.2688-5.62-8.5875-7.5775-5.1575-3.04374-11.7688-4.50249-17.0188-7.32874-2.8037-1.51125-5.4062-3.3325-7.4162-5.56875.025.85125-.2063 1.76625.2312 2.71875 2.0575 4.47625 5.375 8.20749 6.8063 13.08499.7437 2.53875 1.3312 5.45625 3.455 6.4025 2.1025-1.81375 4.2962-3.3675 6.3662-5.03125 2.725-2.195 8.9325-3.0025 11.3825-.0387.335.405-.17 1.0975-.3925.83875-1.3962-1.61625-4.6912-2.3675-7.2612-1.27125-3.3325 1.42125-6.0925 3.7875-8.675 6.00875-1 .86125-2.155.3425-2.98-.2525-1.9738-1.4225-2.2263-4.41125-3.19-7.07125-1.6825-4.64875-4.5625-8.44124-6.67-12.81874-.18-.375-.5425-.435-.8725-.40375-2.4825.23-4.2488 1.3725-6.22 2.19625-3.1088 1.3-6.1063 2.71125-10.2675 3.125-.34.855.2012 2.2575-.3213 2.96874-.3175.43375-.8037-.12125-.7937-.295.1737-3.00249-1.7938-4.32249-3.97753-5.15374.0575 1.24.3825 3.095.29125 4.46375-.90625.17375-1.00375-.815-.9775-1.20125.21-3.05375-.845-5.3625-2.255-7.16125-2.14625-2.73875-4.98125-4.655-7.91875-6.60875" fill="#ef4135"/><path d="m1050.8388 194.87931c1.0712.14875 2.04.64 2.8625 1.125-.064.2825-.3963 1.1775-.9575.53125-.4638-.535-1.5838-.67875-2.22-1.12875-.245-.1725.038-.56625.315-.5275"/><path d="m1058.8594 194.07781c.4213-.3225 1.1113.24.74.6375-.5825.625-1.1525 1.32-1.8562 1.65625-.5963.285-.6225-.64875-.3225-.90125.5037-.42375.965-1.03 1.4387-1.3925"/><path d="m1037.3922 352.67193c.5612.0762.3625.85625.1712 1.33875-.6387 1.60625-2.4725 2.60375-3.9375 3.3825-.505.26875-.33-.6875-.023-.97375 1.235-1.1475 3.0838-1.3875 3.3388-3.5475.1687.0387.255-.22625.45-.2"/><path d="m969.60817 191.82169c.52625-.20125.86.535.56.88625-.95875 1.12375-1.32 2.735-1.59875 4.4925-.0525.33125-.65875.885-.67875.51625-.14125-2.5575.46-4.5275 1.5875-5.8775.0562.0112.0937-.004.13-.0175"/><path d="m1051.6603 236.27243c1.3562-.1525 2.3025.94 2.5475 2.1175.2162 1.04125-.6188 2.2275-1.64 2.39625-1.145.19-2.0613-.495-2.4813-1.49-.455-1.07875.044-2.385 1.035-2.93625.145-.08.3988-.0725.5388-.0875"/><path d="m1053.6935 246.15081c.2025-.065.4038-.0887.5938-.0625 1.1287.16125 1.9875 1.30125 2.05 2.4.064 1.09125-1.1825 2.42375-2.6463 2.19125-1.1387-.1825-1.87-1.3625-1.7975-2.455.054-.79375.9338-1.7975 1.8-2.07375"/><path d="m1053.764 162.01656c.195-.0437.4075-.0488.6638-.0213.6337.0662 1.2637.2225 1.8412.4925 1.0088.47125 1.835 1.305 2.1113 2.40375.46 1.835-1.2 3.54125-2.7125 3.75375-1.7725.2475-3.7763-.6425-4.0075-2.43125-.125-.96875.019-1.9875.5187-2.8375.2075-.3525.4725-.67375.79-.9325.2825-.23.5213-.36625.795-.4275"/><path d="m1021.5452 171.45044c.4837-.035.9875.0538 1.4762.28375 1.32.62375 2.0175 1.9775 2.195 3.37625.2038 1.60875-1.3287 3.16125-2.575 3.26-1.7462.135-3.5037-.495-3.9337-1.95875-.3225-1.09625-.2625-2.32.3262-3.31875.5675-.9625 1.5-1.57 2.5113-1.6425"/><path d="m1036.8306 198.74519c.4687-.22125 1.1475.2025.8537.78-.2025.39875-.835.9675-.3012 1.58 2.3837 2.73 5.6362 4.19625 10.0712 5.075 4.155.82375 9.5675.35125 12.5175-1.5025 1.4987-.9425 2.7587-2.17375 4.0712-3.1975.4513-.35125.5388.47375.2325.76-2.0237 1.90125-4.0237 4.01375-7.2275 4.7725-.066 5.275-3.155 8.71875-8.335 8.84375-5.4674.13125-8.9312-2.73875-10.7924-6.46375-1.0263-2.0525-1.7588-4.43-2.3313-7.02-.6775.19625-2.345.615-1.9362-.69625 1.7.14625 2.7787-1.2675 2.9725-2.63125.017-.13375.1375-.26875.205-.3"/><path d="m1006.4733 138.73456c3.4675-.035 5.18 2.265 6.34 4.6925 1.28 2.67875 2.4525 5.66625 4.2375 8.03.2625.3475 1.625.835.6513 1.47625-.6475.42625-1.5888-2.0075-2.5913-.35625-.1912.31625-.9937.75375-.3925 1.12875.3238.2025.7388.35375.4375.84125-.2487.405-.7162.47-1.1012.26375-1.7975-.96-3.7913-1.575-6.5313-1.61375-2.785-.04-5.8463-.18375-7.59876-1.59875-1.86375-1.50375-1.225-5.2425-.0475-7.06375 1.42496-2.205 3.36126-3.9775 5.50626-5.38125.2925-.19125.69-.415 1.09-.41875"/><path d="m1051.7862 237.35106c-.5313.215-.8125.9575-.715 1.52625.1175.68375 1.0312.99125 1.5437.7875.5463-.2175.6925-1.00375.4638-1.38125-.3013-.50125-.5938-1.215-1.2925-.9325" fill="#ef4135"/><path d="m1054.0608 247.21818c-.5538.2-1.0225.8275-1.1263 1.44125-.1425.84375.81.835 1.2725.94625.6788.1625 1.1463-.6225 1.1413-1.19375 0-.545-.5438-1.4625-1.2875-1.19375" fill="#ef4135"/><g fill="#fbb040"><path d="m1018.8502 394.44818c-.03-.006-.076.0763-.1463.14625 1.3563.84125 2.795 1.65375 3.6725 2.97125.8488 1.275 1.505 2.285 2.9888 2.55375 1.4887.27 1.6412-2.2925.8762-2.75625-2.1875-1.3225-4.525-2.36375-7.3912-2.915"/><path d="m1085.6365 391.26706-.155.0925c-.7225.3075-1.3737.89625-2.1262 1.12875-1.8863.57875-3.76 1.48875-4.0025 3.5975-.1138.99625.9912 1.40125 1.7212 1.63375.7863.2525 1.5638-.315 1.9713-.91 1.0275-1.50125 1.5775-4.43125 2.5912-5.5425"/><path d="m1009.2597 395.06706c-.8438-.06-1.3175.33875-2.025.94375-.28.23875.3337.0587.4675.0762 4.4112.585 7.1 3.3525 9.0637 6.3975.3975.61625 1.375 1 2.07.575.9825-.60125.7588-1.875.3425-2.46625-2.1175-3.0075-5.1587-5.1925-9.9187-5.52625"/><path d="m1095.3412 391.96618c-.26.02-.6838-.004-.955.0775-3.765 1.12-6.6338 3.40625-7.99 6.9475-.2463.6425-.046 1.6125.6175 2.05625.635.4225 1.3537-.11375 1.6437-.61125 1.9175-3.295 4.7325-6.35125 9.23-7.05625-.1437-1.07625-1.4675-1.49625-2.5462-1.41375"/></g><path d="m1038.3499 207.60919c-.015.1.044.12125.05.135 1.6913 4.33375 5.6675 7.46375 11.78 6.81375-.8987-3.05625-3.1712-5.19-6.865-5.52875.2738.575.7025 1.56625 1.1875 2.1725.4613.5775-.1025 1.19375-.5325 1.22875-.715-2.52625-3.2475-4.2325-5.62-4.82125" fill="#f7a08b"/><path d="m1057.08 224.15306c-.185-.0563-.2612.035-.295.0525-1.7262.93625-3.9825 1.17875-6.2387 1.68875-1.83.4125-3.5388-.03-5.23-.1525 3.2625 1.76625 6.2887 4.06375 8.8087 6.57875.4325-2.795 2.22-5.87875 2.955-8.1675" fill="#fbb040"/><path d="m1088.8972 293.34531c-.2438.465-.4038.97375-.5825 1.28375-1.6288 2.8325-3.5638 5.275-5.7925 7.56875 1.6837.715 3.2362 1.9075 4.75 2.7925 1.1125.6525 1.9862.20375 2.525-.535 1.3812-1.89 2.685-4.3725 2.2262-7.70625-.7787-1.185-2.1525-2.425-3.1262-3.40375" fill="#fbb040"/><path d="m1040.5504 399.44681c-.1762-.001-.33.19375-.295.42125-2.1575 1.64875-3.6062 4.41625-3.865 7.97875.46.13875 1.0325-.3375 1.5863-.3575 3.485-.12625 6.3225-.62625 8.5337-2.12.53-1.79.34-4.2125-.3037-5.8225z" fill="#9c5f0e"/><path d="m1066.9694 397.84581c-2.6625.19-5.035.71125-7.61.465-.5487-.0525-1.5225-.28625-1.6562.40625-.3725 1.935.084 3.755 1.4512 4.5075 2.8013 1.54 6.3538 2.78 10.49 2.39625.3238-.03.8788-.035.9375-.74125.2688-3.2175-1.4112-6.07125-3.6125-7.03375" fill="#9c5f0e"/><path d="m1047.4245 131.45606c-.051.004-.1025.007-.1525.0112-1.4412.1175-3.1099.72625-3.3787 2.3375-.2662 1.59625-.07 3.225 0 4.84.058 1.25875.1138 2.5175.1713 3.77625 0 .0225-.01.26875.013.2775 1.0274.435 2.3762.41125 3.5437.88875.4462-.76.92-1.53 1.4537-2.26375 1.365-1.87125 3.4063-3.58375 3.3563-6.47-.014-.78875-.29-1.55-.8225-2.13625-1.0738-1.185-2.6838-1.365-4.1863-1.26125" fill="#f7a08b"/><path d="m1087.2133 281.29356c-.041-.004-.1188.05-.185.0525.095 1.91-.062 3.54-.3038 5.19125 1.1313.385 1.6788 1.58875 1.8488 2.58875.5787 3.39875 2.4975 5.36375 5.0287 7.02125l4.6238-6.935c1.4187-1.63375.1825-3.01-.9663-3.9875-2.4737-2.10375-5.9812-3.5025-10.0462-3.93125" fill="#ef4135"/><path d="m1011.3261 326.04831c-.091.17125-.2088.21-.2738.29-1.7412 2.2125-2.5662 5.41875-2.35 9.22125.1725 3.01.1763 6.225.93 8.935 2.3863.91875 4.6413 1.73625 7.22 2.37875-.3625-.50625-1.4212-1.65375-1.5712-2.1675-1.4875-5.09375-1.0225-12.58625.8375-17.15625-1.8688-.0975-3.5288-.88875-4.7925-1.50125" fill="#0073ae"/><path d="m1087.651 326.51456c-1.7962.43-3.445.6775-5.2825.89625 1.5988 3.84375 2.0938 9.0225 1.7838 14.30625-.145 2.4775-.7988 4.175-1.6525 5.845 2.1487-.10125 4.0587-.55375 5.6275-1.34.5537-.2775 1.2162-.8875 1.4362-1.57625 1.1625-3.645 1.77-9.5325.2525-13.1-.7037-1.65375-1.115-3.8125-2.165-5.03125" fill="#0073ae"/><path d="m1007.2392 139.77431c-.1525-.0187-.6438.0888-.8688.20375-3.055 1.555-5.3837 4.22125-6.2987 7.97375-.40503 1.66.5862 2.95875 1.775 3.395 1.5375.56375 3.2075.6775 4.83.75375.9.0437 1.8012.0675 2.7025.11625.625.0337 1.2412.1325 1.8562.24375.515.0925.9325.43375 1.4713.4125 1.0112-.04 1.8075-.95625 2.4412-1.64625-.965-2.1825-2.1625-4.9175-3.2462-7.195-.9438-1.98375-2.215-3.95875-4.6625-4.2575" fill="#f7a08b"/><path d="m1047.2323 406.09131c-.093.0925-.235.23125-.2875.27-.9863.72875-1.7788 1.04625-3.1025 1.31875-5.2862 1.0875-10.78 1.33125-14.5987 3.89875-4.2363 2.84875-9.44 4.98625-16.35 5.325-7.24.3525-12.90631-1.85625-16.48006-5.5675-.0387-.0387-.44875-.89625-.53875-.07-.38125 3.4825 2.1775 4.8125 4.50621 5.6875 1.2175.9775 3.1026 1.80625 4.9638 1.5775 1.7988-1.4425 4.14.03 4.7875 1.58375.2825.67625 2.3575.38875 2.8375-.5875.8825-1.7925 3.6325-1.64125 4.9725-.4675.7163.62875 1.4363-.9075 1.9975-1.595.7675-.94 2.5338-.8225 3.315.11625.9175 1.1 2.0075-.16625 2.2588-.98875.6-1.9625 3.475-1.66375 4.6237-.39625 1.6563-.1875 1.9813-2.195 2.4938-3.52875 1.5462-.8425 3.12-.16875 4.1075.45125 1.18.74125 1.375-1.20375 1.9387-1.84875.7875-.90125 2.3375-.965 3.2038-.1225.4462.43375 1.6112.8275 1.5962.35625-.049-1.56875 1.9575-2.9575 3.6687-2.35375.4938-1.095.3125-2.38125.086-3.05875" fill="#414142"/><path d="m1080.353 327.60368c-.082.0288-.3425.0662-.4275.0813-1.3487.245-2.7512.32-4.3212.205-.5463-.0387-.43.74625-.3788 1.0325.9888 5.4625.4513 11.99125-.6512 17.20875.4625.99375 2.25 1.28125 3.6687 1.35125 2.2588.865 3.66-.8325 4.0813-2.2375 1.6312-5.43875 1.065-12.6225-.8875-17.1175-.1888-.43625-.6063-.68875-1.0838-.52375" fill="#0073ae"/><path d="m1022.7686 327.58856c-.06.006-.1788.0538-.22.0613-1.9813.33875-3.355.3625-5.3625.1525-1.6313 3.48875-2.2913 9.01125-1.5363 13.855.34 2.17875 1.6175 3.74875 2.5275 5.26 1.495.15375 2.95.0988 4.4288-.0562 1.1512-.1225.9937-1.46 1.0512-2.35.37-5.6575-.5887-11.1325-.2275-16.57125.045-.68875-.495-.36875-.6612-.35125" fill="#0073ae"/><path d="m1058.0634 403.81256c.023.32375.096.65125.034.95375-.2537 1.2425.6588 2.7425 1.6675 2.77875 1.15.0412 2.515-1.12875 4.0663-.60125.9962.885 1.2287 2.6025 2.505 3.2525.745-.4875 1.1062-1.375 2.0562-1.62125 1.565-.405 2.5288.8725 2.7425 2.0025.1913 1.00625 1.3725 1.6325 1.8575 1.3.8325-.57 2.19-1.47 3.9425-.905 1.2738.87 1.755 3.0425 3.4538 3.44875 1.07-1.085 2.6212-1.76125 4.315-1.19625 1.0037.89125 1.4837 2.735 2.8175 3.20625 1.4475-.78375 2.33-2.00375 3.9812-2.3375 1.48.30625 2.155 1.8625 3.0613 2.8625.9637-.8425 1.5-2.48875 2.4637-2.18 1.3363.42875 2.2875 1.87625 3.7063 1.96625 2.5412-.61625 5.2187-.7525 6.7825-2.355 1.445-.73875 2.6012-2.62 1.79-4.80125-.4575.42875-1.0838.62875-1.8238 1.02-1.9162 1.01-4.61 1.48375-7.0925 2.03375-2.6737.5925-6.025.0625-8.76-.1375-4.3875-.32125-8.6425-1.12125-12.05-2.50375-2.6862-1.09-4.7925-3.415-8.3575-3.245-5.1137.24375-9.9187-.7725-13.1587-2.94125" fill="#414142"/><path d="m1087.4989 314.47518c-.088-.035-.18-.0513-.2762-.0437-.7.0613-1.1275.495-1.8413.675-.54.13375-1.4037.50125-1.9475.63-1.3237.315-2.57.75625-3.9337.92625-1.6125.2-3.255.16625-4.8513-.14125-1.4487-.28125.1838.9925.1613 1.4125-.1413 2.61875.2225 5.26125.485 7.69375.034.31875-.3713 1.3175.6212 1.2775 4.765-.195 9.42-.7525 12.845-1.91625 1.5538-.52875 3.2925-2.3025 2.5038-4.35125-.6413-1.6675-1.5888-3.19-2.5863-4.66375-.2725-.40375-.6562-1.28875-1.18-1.49875" fill="#0073ae"/><path d="m1047.7855 126.45669c-.8487.007-1.77.11-2.5737.3125-2.9812.7525-5.735 2.20625-6.2762 5.3075-.5638 3.23375.41 6.36875 1.0887 9.03625.3925 1.53875 1.7038 1.20625 2.68 1.39125-.031-.006-.01-.965-.01-1.02375l-.041-4.80625c-.014-1.495-.4513-3.7475.7787-4.90875.5763-.54375 1.2987-.915 2.0487-1.1525 1.7013-.53625 3.6-.4375 5.295.0762 2.185.6625 3.485 3.6875 2.4925 6.3475-.91 2.44125-2.7862 4.21375-4.1687 6.2625-.8275 1.22625 1.1625 1.115 1.7912 1.40125.6375-.99375 2.01-1.515 3.0413-2.225.6212-.42625 1.2287-.875 1.8012-1.3675 1.2588-1.085 2.315-2.40125 2.8775-3.97875.31-.86875.485-1.8.4863-2.72125 0-.98125-.45-1.845-.9025-2.69375-.4213-.79125-.95-1.525-1.5788-2.16375-2.3012-2.33875-5.645-3.12375-8.8312-3.09375" fill="#fbb040"/><path d="m1014.9944 313.08243c-.021-.009-.1075.0988-.115.1075-2.5062 2.80625-4.1262 6.48-6.75 9.2425 3.4088 3.425 10.3688 5.52 16.5238 3.58.3787-4.01.6112-7.99375 1.7275-11.14625-4.4463.9175-8.0863-.5175-11.3863-1.78375" fill="#0073ae"/><path d="m980.88642 200.45544c-.10375.0887-.1925.12375-.20125.13375-4.2 4.5575-9.46875 8.0925-16.8225 9.51875-.16875.71875.07 1.4975.33 2.2025 1.0025 2.71375 2.35625 5.23875 3.77625 7.62125 4.82375-1.13375 8.7525-2.81875 12.405-4.885 2.71125-1.5325 4.7725-3.735 6.7825-5.92.41-.445.665-1.11625.18-1.67625-2.045-2.3675-4.0475-5.015-6.45-6.995" fill="#ef4135"/><path d="m1090.4333 390.11906c-.012.002-.045-.007-.062-.007-1.6938-.03-2.6875 1.2825-3.8113 1.99875l-2.7175 5.52125c-.645 1.04-2.1487 1.58625-3.5987.9575-1.4863-.12375-2.45-2.15375-1.8663-3.85875-2.9937 1.12-6.0525 2.0625-9.3062 2.9775 1.6812 1.90875 2.8287 4.32625 2.7 7.8525 1.4275.0937 2.615.41125 3.6087 1.005 4.55 2.7125 9.955 4.5625 16.7925 5.05875 4.4238.32125 8.45-.025 12.1075-1.00125 1.9813-.52875 3.7988-1.25125 4.8238-2.73875.6862-2.95625.2275-7.09875-1.6488-8.69875-2.7512-2.3475-5.63-5.1025-10.8387-4.51-2.885 1.1-5.0075 3.09-6.675 5.56125-.2713 1.10625-1.5513 2.5025-3.0925 1.88875-1.215-.4825-2.0263-2.225-1.4138-3.86875 1.1425-3.0625 3.6713-5.29 6.6188-6.6475.4662-.215-.6375-1.73-1.62-1.49" fill="#9c5f0e"/><path d="m1014.2308 394.19031c-.3325-.0175-.7062.0437-1.1275.2275 3.0413 1.10375 5.2063 2.9775 6.9263 5.33875.95 1.30625.8025 3.3825-.5788 4.05625-1.2562 1.13-2.9937.20625-3.7275-.855-1.9275-2.79625-4.1037-5.895-8.7925-5.64125-3.5512.1925-6.0688 2.05875-7.71876 4.37-1.525 2.135-3.28 4.895-2.465 8.4075 2.8475 2.95125 6.52126 5.3175 11.86256 5.645 4.2175.25625 7.8662-.3725 11.4612-1.265 5.0163-1.24625 9.0563-4.11875 13.745-6.00625.8688-.35 1.405-1.3975 1.6113-2.26.5337-2.23625 1.8737-5.05625 3.2387-6.505-3.545-.72-7.325-.8-10.4925-2.01-1.265-.48375-.4487.87125-.4187 1.20625.1425 1.55875-1.7388 2.70375-3.2713 2.31375-1.6512-.42125-2.42-2.11125-3.3775-3.43875-1.9037-1.57125-3.6937-3.4175-6.875-3.58375" fill="#9c5f0e"/></g></svg>